# xmcd
#
# Track frame offsets: 
#        150
#        32262
#        52322
#        90517
#        113517
#        134860
#        144272
#        163492
#        184940
#
# Disc length: 2879 seconds
#
# Revision: 3
# Processed by: cddbd v1.5.2PL0 Copyright (c) Steve Scherf et al.
# Submitted via: ExactAudioCopy v0.95b4
#
DISCID=7e0b3d09
DTITLE=Freddie King - Boogie On Down - The Essential Collection [CD 2)
DYEAR=1995
DGENRE=Blues
TTITLE0=I'm Tore Down
TTITLE1=Key To The Highway
TTITLE2=Have You Ever Loved A Woman
TTITLE3=Going Down
TTITLE4=Introduction
TTITLE5=You're So Good Looking
TTITLE6=Look On Yonder Wall
TTITLE7=Ain't Nobody's Business
TTITLE8=Big Legged Woman
EXTD=YEAR: 1995 ID3G:   0
EXTT0=
EXTT1=
EXTT2=
EXTT3=
EXTT4=
EXTT5=
EXTT6=
EXTT7=
EXTT8=
PLAYORDER=
